<svg xmlns="http://www.w3.org/2000/svg" width="13.411" height="16.4" viewBox="0 0 13.411 16.4">
  <g id="Multiple_delete" transform="translate(0.208 0.2)">
    <path id="Path_451" data-name="Path 451" d="M355.773,337.7a.375.375,0,0,0-.375.375v7.082a.375.375,0,1,0,.749,0v-7.082a.375.375,0,0,0-.375-.375Zm0,0" transform="translate(-347.064 -331.906)" fill="#fff" stroke="#fff" stroke-width="0.4"/>
    <path id="Path_452" data-name="Path 452" d="M237.773,337.7a.375.375,0,0,0-.375.375v7.082a.375.375,0,1,0,.749,0v-7.082a.375.375,0,0,0-.375-.375Zm0,0" transform="translate(-233.486 -331.906)" fill="#fff" stroke="#fff" stroke-width="0.4"/>
    <path id="Path_453" data-name="Path 453" d="M134.061,187.762v9.232a2.067,2.067,0,0,0,.55,1.426,1.845,1.845,0,0,0,1.339.579h7.09a1.845,1.845,0,0,0,1.339-.579,2.067,2.067,0,0,0,.55-1.426v-9.232a1.431,1.431,0,0,0-.367-2.815h-1.919v-.468a1.472,1.472,0,0,0-1.484-1.48H137.83a1.472,1.472,0,0,0-1.484,1.48v.468h-1.918a1.431,1.431,0,0,0-.367,2.815Zm8.978,10.487h-7.09a1.187,1.187,0,0,1-1.139-1.255v-9.2h9.368v9.2a1.187,1.187,0,0,1-1.139,1.255Zm-5.943-13.77a.722.722,0,0,1,.734-.731h3.327a.722.722,0,0,1,.734.731v.468h-4.8Zm-2.668,1.218H144.56a.674.674,0,0,1,0,1.349H134.428a.674.674,0,1,1,0-1.349Zm0,0" transform="translate(-132.997 -182.999)" fill="#fff" stroke="#fff" stroke-width="0.4"/>
    <path id="Path_454" data-name="Path 454" d="M296.773,337.7a.375.375,0,0,0-.375.375v7.082a.375.375,0,1,0,.749,0v-7.082a.375.375,0,0,0-.375-.375Zm0,0" transform="translate(-290.275 -331.906)" fill="#fff" stroke="#fff" stroke-width="0.4"/>
  </g>
</svg>
