<svg id="Writeback_White" xmlns="http://www.w3.org/2000/svg" width="98.568" height="16.488" viewBox="0 0 98.568 16.488">
  <path id="Path_463" data-name="Path 463" d="M7.275-7.842a1.878,1.878,0,0,0-1.182-.322,2.023,2.023,0,0,0-1.68.908A4.061,4.061,0,0,0,3.74-4.785V0H1.475V-10H3.74v2.061h.039A3.484,3.484,0,0,1,4.8-9.585a2.3,2.3,0,0,1,1.538-.591,1.909,1.909,0,0,1,.938.186ZM10.02-12.1a1.362,1.362,0,0,1-.952-.361,1.189,1.189,0,0,1-.4-.918,1.219,1.219,0,0,1,.4-.928,1.342,1.342,0,0,1,.952-.371,1.384,1.384,0,0,1,.977.371,1.212,1.212,0,0,1,.4.928,1.2,1.2,0,0,1-.4.9A1.374,1.374,0,0,1,10.02-12.1ZM11.143,0H8.877V-10h2.266Zm8.232-.107a3.926,3.926,0,0,1-1.748.332q-2.91,0-2.91-2.793V-8.223h-1.67V-10h1.67v-2.314l2.266-.645V-10h2.393v1.777H16.982v5a1.97,1.97,0,0,0,.322,1.27,1.338,1.338,0,0,0,1.074.381,1.558,1.558,0,0,0,1-.332Zm10.3-4.277H22.861a2.881,2.881,0,0,0,.854,2.139,3.179,3.179,0,0,0,2.241.752A4.942,4.942,0,0,0,28.9-2.451V-.625a6.716,6.716,0,0,1-3.613.859,4.473,4.473,0,0,1-3.462-1.362,5.449,5.449,0,0,1-1.255-3.833,5.328,5.328,0,0,1,1.382-3.8,4.52,4.52,0,0,1,3.433-1.47,3.941,3.941,0,0,1,3.174,1.318,5.474,5.474,0,0,1,1.123,3.662Zm-2.187-1.6a2.919,2.919,0,0,0-.576-1.9,1.925,1.925,0,0,0-1.562-.679,2.2,2.2,0,0,0-1.655.713,3.257,3.257,0,0,0-.835,1.865Zm6.65,4.541H34.1V0H31.836V-14.8H34.1v6.563h.039a3.713,3.713,0,0,1,3.4-1.992A3.578,3.578,0,0,1,40.5-8.892a5.614,5.614,0,0,1,1.069,3.6,6.267,6.267,0,0,1-1.2,4.019A3.968,3.968,0,0,1,37.09.234,3.221,3.221,0,0,1,34.141-1.445ZM34.082-5.42v1.24a2.646,2.646,0,0,0,.7,1.855,2.3,2.3,0,0,0,1.772.762,2.315,2.315,0,0,0,1.978-.981,4.567,4.567,0,0,0,.718-2.739,3.6,3.6,0,0,0-.669-2.31,2.2,2.2,0,0,0-1.812-.835,2.441,2.441,0,0,0-1.948.859A3.183,3.183,0,0,0,34.082-5.42ZM51.328,0h-2.2V-1.562h-.039a3.308,3.308,0,0,1-3.037,1.8,3.2,3.2,0,0,1-2.31-.8,2.8,2.8,0,0,1-.835-2.119q0-2.832,3.262-3.3l2.969-.42q0-2.139-2.031-2.139a4.825,4.825,0,0,0-3.223,1.23V-9.3a7.028,7.028,0,0,1,3.652-.937q3.789,0,3.789,3.73ZM49.141-4.912l-2.1.293a3.328,3.328,0,0,0-1.47.474,1.384,1.384,0,0,0-.493,1.216,1.331,1.331,0,0,0,.454,1.04,1.758,1.758,0,0,0,1.216.405,2.243,2.243,0,0,0,1.714-.728,2.58,2.58,0,0,0,.679-1.831ZM61.25-.459a5.587,5.587,0,0,1-2.842.693,4.813,4.813,0,0,1-3.594-1.392,4.93,4.93,0,0,1-1.367-3.608,5.426,5.426,0,0,1,1.47-3.97,5.254,5.254,0,0,1,3.931-1.5,5.738,5.738,0,0,1,2.412.479v2.109a3.653,3.653,0,0,0-2.227-.781,3.094,3.094,0,0,0-2.354.972,3.553,3.553,0,0,0-.918,2.544,3.388,3.388,0,0,0,.864,2.451,3.068,3.068,0,0,0,2.319.9,3.625,3.625,0,0,0,2.3-.869ZM72.568,0H69.7L65.811-4.8h-.039V0H63.5V-14.8h2.275V-5.42h.039L69.482-10h2.725L68.076-5.176Z" transform="translate(26 14.805)" fill="#fff"/>
  <g id="writeback_white-2" data-name="writeback_white" transform="translate(0 0.805)">
    <rect id="Rectangle_4983" data-name="Rectangle 4983" width="4.365" height="15.589" rx="2.182" transform="translate(0 2.182) rotate(-30)" fill="#fff"/>
    <rect id="Rectangle_4984" data-name="Rectangle 4984" width="4.365" height="15.589" rx="2.182" transform="translate(20.09) rotate(30)" fill="#fff"/>
    <rect id="Rectangle_4985" data-name="Rectangle 4985" width="4.365" height="8.418" rx="2.182" transform="translate(6.898 2.182) rotate(-30)" fill="#fff"/>
  </g>
</svg>
